inDegrees=yes
name=ik_lifting_orientations
DataType=double
version=3
OpenSimVersion=4.5-2024-01-10-34fd6af
endheader
time	pelvis_tilt	pelvis_list	pelvis_rotation	pelvis_tx	pelvis_ty	pelvis_tz	hip_flexion_r	hip_adduction_r	hip_rotation_r	knee_angle_r	knee_angle_r_beta	ankle_angle_r	subtalar_angle_r	mtp_angle_r	hip_flexion_l	hip_adduction_l	hip_rotation_l	knee_angle_l	knee_angle_l_beta	ankle_angle_l	subtalar_angle_l	mtp_angle_l	lumbar_extension	lumbar_bending	lumbar_rotation	arm_flex_r	arm_add_r	arm_rot_r	elbow_flex_r	pro_sup_r	wrist_flex_r	wrist_dev_r	arm_flex_l	arm_add_l	arm_rot_l	elbow_flex_l	pro_sup_l	wrist_flex_l	wrist_dev_l
1.64	23.2365759359136	9.994761535843924	-142.6461964075908	0	0.9399999998679526	0	45.06417377595225	-10.05374460406331	0	60.11621269565835	1.049225845368454	-5.01131855923814	0	0	45.06417377595225	-10.05374460406331	0	60.11621269565835	1.049225845368454	-5.01131855923814	0	0	-42.3137167001436	-45.03088340229088	18.63215860553918	57.41525757496723	-22.89827390212596	-2.300727502499155	34.47547612885987	1.013929980946824	0	0	0	-12.22641888773106	0	89.00003400630403	1.013929980946824	0	0
1.65	22.34855936443752	9.645583935662591	-142.2466299930936	0	0.9399999998679526	0	45.06412376317996	-10.05359788123796	0	60.11614187809352	1.049224609368779	-5.011278238926572	0	0	45.06412376317996	-10.05359788123796	0	60.11614187809352	1.049224609368779	-5.011278238926572	0	0	-41.49211896226533	-44.26732522890431	19.72327760198342	56.11068286639921	-22.89418092595932	-2.556526304739401	35.0792570110661	1.013380619155045	0	0	0	-12.22752428416398	0	89.00057570545972	1.013380619155045	0	0
1.66	21.42738882821133	9.2621840172097	-141.7937723661841	0	0.9399999998679526	0	45.06406917645724	-10.05343802143369	0	60.11606458296163	1.049223260314232	-5.011234343543175	0	0	45.06406917645724	-10.05343802143369	0	60.11606458296163	1.049223260314232	-5.011234343543175	0	0	-40.65348047353774	-43.43638053361082	20.83178505374959	54.662624779934	-22.96545396497095	-2.889509020607999	35.708816315751	1.012780908845932	0	0	0	-12.2287310996364	0	89.0011670508608	1.012780908845932	0	0
1.67	20.41561969897429	8.862647111863028	-141.1361008870047	0	0.9399999998679526	0	45.06402154660759	-10.05329891371166	0	60.11599709214106	1.049222082377198	-5.011196185052415	0	0	45.06402154660759	-10.05329891371166	0	60.11599709214106	1.049222082377198	-5.011196185052415	0	0	-40.09382227833809	-42.46105408184734	21.6298750717867	53.33153433439285	-23.09497479145973	-3.017258984832401	36.39148440143617	1.012257393861586	0	0	0	-12.22978492160193	0	89.00168326373114	1.012257393861586	0	0
1.68	19.34916414101811	8.424073880416326	-140.3385926804395	0	0.9399999998679526	0	45.06400348396269	-10.05324656422576	0	60.11597136075308	1.049221633279757	-5.011181850367259	0	0	45.06400348396269	-10.05324656422576	0	60.11597136075308	1.049221633279757	-5.011181850367259	0	0	-40.50669476474998	-41.5889926191487	21.79740265539023	52.53072581619797	-23.18387723632777	-3.386659622411907	37.09402957823384	1.012058431544773	0	0	0	-12.23018615069388	0	89.00187945087694	1.012058431544773	0	0
1.69	18.22406559222036	8.184080774914358	-138.8816592716279	0	0.9399999998679526	0	45.06395427322327	-10.05310332103337	0	60.11590157305435	1.049220415254637	-5.011142606966827	0	0	45.06395427322327	-10.05310332103337	0	60.11590157305435	1.049220415254637	-5.011142606966827	0	0	-39.89965526814058	-39.81351623476704	22.28602781005949	50.73480997609089	-23.22241868201176	-3.706199236655112	37.77179714889274	1.011517246468469	0	0	0	-12.23127595732987	0	89.0024130873759	1.011517246468469	0	0
1.7	17.10738603606959	7.897705993856378	-137.4069207481329	0	0.9399999998679526	0	45.06390988167998	-10.05297445033692	0	60.11583856892401	1.04921931562512	-5.011107334707574	0	0	45.06390988167998	-10.05297445033692	0	60.11583856892401	1.04921931562512	-5.011107334707574	0	0	-39.55116933391394	-38.06931067316439	22.52991775408358	49.15022324783267	-23.35076874380375	-3.783879956681197	38.3341254463462	1.011028827939698	0	0	0	-12.23225984595656	0	89.00289469333022	1.011028827939698	0	0
1.71	16.00410638145808	7.554483442892869	-135.8850622701677	0	0.9399999998679526	0	45.06388442763094	-10.05290091948916	0	60.11580233772836	1.049218683271464	-5.011087235158238	0	0	45.06388442763094	-10.05290091948916	0	60.11580233772836	1.049218683271464	-5.011087235158238	0	0	-39.34132153953932	-36.30020243037261	22.51161775706599	47.58212137001622	-23.54932748082044	-3.655082483781297	38.98481202507669	1.010748421161043	0	0	0	-12.23282527788583	0	89.00317118893345	1.010748421161043	0	0
1.72	14.86240457877746	7.020776045287867	-134.6255562390112	0	0.9399999998679526	0	45.06386224179063	-10.05283694185143	0	60.11577073218981	1.049218131650755	-5.011069756160012	0	0	45.06386224179063	-10.05283694185143	0	60.11577073218981	1.049218131650755	-5.011069756160012	0	0	-39.22049244472052	-34.71445124530323	22.51676103435061	46.04453643695967	-23.5895490243633	-3.577786353714477	39.52547758294859	1.010503920675168	0	0	0	-12.23331846109748	0	89.00341227907374	1.010503920675168	0	0
1.73	13.82543727837191	6.59129816100927	-133.4919161431967	0	0.9399999998679526	0	45.0638181703021	-10.05270943027367	0	60.11570817194414	1.049217039768487	-5.011034907444355	0	0	45.0638181703021	-10.05270943027367	0	60.11570817194414	1.049217039768487	-5.011034907444355	0	0	-38.74930221563356	-33.23736895338227	22.75608456038207	44.05279070108648	-23.44526704039842	-4.060396474716326	40.43865010157504	1.010018838856257	0	0	0	-12.23429584137068	0	89.00389059486226	1.010018838856257	0	0
1.74	12.80351083644905	6.093753636851859	-132.4099261122749	0	0.9399999998679526	0	45.06378564759858	-10.05261557890582	0	60.11566195735359	1.049216233171719	-5.011009279863893	0	0	45.06378564759858	-10.05261557890582	0	60.11566195735359	1.049216233171719	-5.011009279863893	0	0	-38.40823240352231	-31.84967038509442	22.88378906723516	42.37140410245253	-23.32543249028668	-4.237943906123152	41.22232632589648	1.009660680653396	0	0	0	-12.23501777980397	0	89.0042437573958	1.009660680653396	0	0
1.75	11.78847610043851	5.586993330383677	-131.3743412044876	0	0.9399999998679526	0	45.06374721938121	-10.05250472062331	0	60.11560739332577	1.049215280849781	-5.010979020229562	0	0	45.06374721938121	-10.05250472062331	0	60.11560739332577	1.049215280849781	-5.010979020229562	0	0	-37.90621617807158	-30.44354484217261	23.0341248989957	40.72958274064493	-23.31038338418271	-4.126135630379986	41.86021266026603	1.009237560628144	0	0	0	-12.23587049936053	0	89.00466097564981	1.009237560628144	0	0
1.76	10.87396731197097	5.160593076152646	-130.0437009622217	0	0.9399999998679526	0	45.06318923225324	-10.0514080548566	0	60.11460136163928	1.049197722284472	-5.010705058986021	0	0	45.06318923225324	-10.0514080548566	0	60.11460136163928	1.049197722284472	-5.010705058986021	0	0	-37.35452833127783	-28.75722259795677	22.88892760640808	39.04641042817229	-23.19632080357	-4.11343491893485	42.53945403696596	1.002461721967308	0	0	0	-12.25062060182088	0	89.0113423085413	1.002461721967308	0	0
1.77	9.839716246341755	4.714111615780221	-128.4052629663912	0	0.9399999998679526	0	45.06263266694062	-10.05033207912696	0	60.11359594675161	1.049180174484333	-5.010437706340933	0	0	45.06263266694062	-10.05033207912696	0	60.11359594675161	1.049180174484333	-5.010437706340933	0	0	-36.92072684374504	-26.79712359476559	22.44311584693407	37.47017262440702	-23.03854176213992	-4.008952866853169	43.09044660097108	0.9956835963056109	0	0	0	-12.26540497849995	0	89.01802589666289	0.9956835963056109	0	0
1.78	8.756051465385857	4.209920255599434	-126.7096367247444	0	0.9399999998679526	0	45.06210264676063	-10.04931860731445	0	60.11263883467182	1.049163469727231	-5.0101868115585	0	0	45.06210264676063	-10.04931860731445	0	60.11263883467182	1.049163469727231	-5.0101868115585	0	0	-36.7168968490993	-24.89232852257524	21.95084550732488	36.05680593550565	-22.95828374717243	-4.071729631123263	43.77079331284764	0.9892168715814512	0	0	0	-12.27952757404962	0	89.02440242716587	0.9892168715814512	0	0
1.79	7.778059446096538	3.804071779481488	-124.9513700039777	0	0.9399999998679526	0	45.06158818447366	-10.04834561863627	0	60.11171034858706	1.049147264587992	-5.009946852598302	0	0	45.06158818447366	-10.04834561863627	0	60.11171034858706	1.049147264587992	-5.009946852598302	0	0	-36.45279682619398	-22.97815312847403	21.3052517804505	34.83028166843106	-23.08745692427788	-3.787193959117059	44.56921155609652	0.9829288543202757	0	0	0	-12.29327600620847	0	89.03060274278005	0.9829288543202757	0	0
1.8	6.818271537654049	3.346667946207375	-123.2120505361892	0	0.9399999998679526	0	45.06107998839892	-10.04739647002107	0	60.11079268273477	1.049131248297437	-5.00971374543431	0	0	45.06107998839892	-10.04739647002107	0	60.11079268273477	1.049131248297437	-5.00971374543431	0	0	-36.23571915087037	-21.11491875634138	20.46121969304998	33.7209633583706	-23.172534593786	-3.336357052501171	45.34628433765252	0.9767040919793697	0	0	0	-12.30690596519823	0	89.03674068579384	0.9767040919793697	0	0
1.81	5.806011426499204	2.84108941525218	-121.1259413497378	0	0.9399999998679526	0	45.06051952091988	-10.04637132652044	0	60.10977653351323	1.04911351314783	-5.009463648465962	0	0	45.06051952091988	-10.04637132652044	0	60.10977653351323	1.04911351314783	-5.009463648465962	0	0	-35.99535661539608	-18.97157512744762	19.32583520179292	32.45545610306485	-23.16145938486655	-2.951775368134961	45.95269993398196	0.9698133070998627	0	0	0	-12.32203353486246	0	89.04353536220323	0.9698133070998627	0	0
